<svg width="24" height="24" viewBox="0 0 24 24" fill="none" xmlns="http://www.w3.org/2000/svg">
<path fill-rule="evenodd" clip-rule="evenodd" d="M12.0001 2C6.47791 2 2 6.5904 2 12.2532C2 16.7833 4.86533 20.6266 8.83867 21.9824C9.33844 22.0773 9.52192 21.76 9.52192 21.4891C9.52192 21.2446 9.51265 20.437 9.50834 19.5802C6.72631 20.2005 6.13927 18.3705 6.13927 18.3705C5.68437 17.1854 5.02894 16.8702 5.02894 16.8702C4.12163 16.2339 5.09733 16.2469 5.09733 16.2469C6.10151 16.3193 6.63026 17.3035 6.63026 17.3035C7.52217 18.871 8.96965 18.4178 9.5403 18.1559C9.63006 17.4932 9.88922 17.0409 10.1752 16.7848C7.95405 16.5256 5.61913 15.6464 5.61913 11.7177C5.61913 10.5982 6.00977 9.6836 6.64947 8.96556C6.54564 8.70731 6.20335 7.66448 6.74635 6.25218C6.74635 6.25218 7.58609 5.97661 9.49708 7.30317C10.2948 7.07599 11.1502 6.96206 12.0001 6.95816C12.8499 6.96206 13.7061 7.07599 14.5052 7.30317C16.4139 5.97661 17.2525 6.25218 17.2525 6.25218C17.7968 7.66448 17.4544 8.70731 17.3505 8.96556C17.9917 9.6836 18.3797 10.5982 18.3797 11.7177C18.3797 15.6557 16.0403 16.5228 13.8135 16.7767C14.1722 17.0949 14.4918 17.7188 14.4918 18.6754C14.4918 20.0473 14.4802 21.1514 14.4802 21.4891C14.4802 21.762 14.6602 22.0817 15.1671 21.981C19.1383 20.6237 22 16.7818 22 12.2532C22 6.5904 17.5227 2 12.0001 2Z" fill="white"/>
<path fill-rule="evenodd" clip-rule="evenodd" d="M5.817 16.6509C5.79502 16.7013 5.717 16.7165 5.64593 16.6818C5.57353 16.6487 5.53287 16.58 5.55634 16.5294C5.57783 16.4774 5.65601 16.463 5.72824 16.4978C5.8008 16.5309 5.84212 16.6003 5.817 16.6509Z" fill="white"/>
<path fill-rule="evenodd" clip-rule="evenodd" d="M6.22135 17.1096C6.17375 17.1545 6.08069 17.1337 6.01755 17.0627C5.95226 16.9919 5.94003 16.8973 5.98829 16.8517C6.03738 16.8068 6.12763 16.8279 6.19309 16.8986C6.25838 16.9703 6.2711 17.0642 6.22135 17.1096Z" fill="white"/>
<path fill-rule="evenodd" clip-rule="evenodd" d="M6.61487 17.6942C6.55371 17.7374 6.45371 17.6969 6.3919 17.6066C6.33074 17.5163 6.33074 17.4081 6.39322 17.3647C6.4552 17.3213 6.55371 17.3603 6.61636 17.4499C6.67735 17.5417 6.67735 17.65 6.61487 17.6942Z" fill="white"/>
<path fill-rule="evenodd" clip-rule="evenodd" d="M7.15405 18.2591C7.09934 18.3205 6.98281 18.304 6.89752 18.2203C6.81025 18.1384 6.78595 18.0223 6.84082 17.9609C6.8962 17.8994 7.01339 17.9167 7.09934 17.9997C7.18595 18.0814 7.21239 18.1984 7.15405 18.2591Z" fill="white"/>
<path fill-rule="evenodd" clip-rule="evenodd" d="M7.89781 18.5871C7.87368 18.6666 7.76145 18.7028 7.64839 18.669C7.5355 18.6342 7.46161 18.541 7.48442 18.4607C7.50789 18.3806 7.62062 18.343 7.7345 18.3791C7.84723 18.4138 7.92128 18.5062 7.89781 18.5871Z" fill="white"/>
<path fill-rule="evenodd" clip-rule="evenodd" d="M8.71469 18.648C8.7175 18.7318 8.62163 18.8012 8.50296 18.8027C8.38362 18.8054 8.28709 18.7377 8.28577 18.6553C8.28577 18.5707 8.37949 18.502 8.49882 18.4999C8.6175 18.4976 8.71469 18.5648 8.71469 18.648Z" fill="white"/>
<path fill-rule="evenodd" clip-rule="evenodd" d="M9.47489 18.5163C9.4891 18.5981 9.40662 18.6819 9.28877 18.7043C9.1729 18.7258 9.06563 18.6754 9.05092 18.5944C9.03654 18.5106 9.12051 18.4267 9.23621 18.4051C9.35423 18.3842 9.45985 18.4333 9.47489 18.5163Z" fill="white"/>
</svg>
