<svg width="24" height="24" viewBox="0 0 24 24" fill="none" xmlns="http://www.w3.org/2000/svg">
<path fill-rule="evenodd" clip-rule="evenodd" d="M12 2C6.47715 2 2 6.47715 2 12C2 17.5228 6.47715 22 12 22C17.5228 22 22 17.5228 22 12C22 6.47715 17.5228 2 12 2ZM7.94878 7C8.72404 7 9.20146 7.5085 9.21617 8.17612C9.21617 8.82992 8.72404 9.35306 7.93385 9.35306H7.91937C7.15854 9.35306 6.66669 8.82992 6.66669 8.17612C6.66669 7.5085 7.17352 7 7.94878 7ZM6.80066 10.2824H9.06688V17.0915H6.80066V10.2824ZM17.2397 13.1874C17.2397 11.096 16.1217 10.1226 14.6305 10.1226C13.4273 10.1226 12.8886 10.7834 12.5878 11.2471V10.2826H10.3213C10.3512 10.9216 10.3213 17.0917 10.3213 17.0917H12.5878V13.2889C12.5878 13.0854 12.6025 12.8824 12.6624 12.7367C12.8262 12.3302 13.1991 11.9093 13.8252 11.9093C14.6456 11.9093 14.9735 12.5336 14.9735 13.4487V17.0915H17.2397L17.2397 13.1874Z" fill="white"/>
</svg>
